<svg width="192" height="192" viewBox="0 0 192 192" xmlns="http://www.w3.org/2000/svg">
  <rect width="192" height="192" fill="#705898" opacity="0.1" rx="16"/>
  <circle cx="96" cy="96" r="60" fill="#705898"/>
  <path d="M75 70 Q70 75 70 85 Q70 95 75 100 L85 105 Q80 100 80 95 Q80 90 85 85 Q90 78 95 78 Q100 78 105 85 Q110 90 110 95 Q110 100 105 105 L115 100 Q120 95 120 85 Q120 75 115 70 Q105 60 96 60 Q85 60 75 70 Z" fill="#FFCCFF"/>
  <circle cx="82" cy="85" r="4" fill="#705898"/>
  <circle cx="110" cy="85" r="4" fill="#705898"/>
</svg>